<svg width="586" height="642" viewBox="0 0 586 642" fill="none" xmlns="http://www.w3.org/2000/svg">
<path d="M418.029 153.606C462.503 198.18 511.073 233.776 520.436 278.671C529.799 323.567 499.662 378.082 469.525 430.033C439.681 481.983 409.544 531.688 363.899 561.832C318.548 591.656 257.396 602.238 202.096 584.601C146.796 566.963 97.9333 521.106 69.5519 464.025C41.463 406.623 34.4408 337.997 51.7038 281.557C68.9667 225.118 110.807 181.184 154.989 136.289C199.463 91.7145 246.277 46.4985 289.874 50.6674C333.47 55.1569 373.847 108.711 418.029 153.606Z" fill="#312945"/>
<path d="M141.17 272.06C139.423 272.061 137.686 271.812 136.01 271.32C135.963 271.307 135.918 271.285 135.88 271.255C135.841 271.225 135.809 271.187 135.786 271.144C135.762 271.101 135.748 271.053 135.744 271.005C135.739 270.956 135.745 270.907 135.76 270.86C135.773 270.812 135.795 270.768 135.825 270.729C135.855 270.69 135.893 270.658 135.935 270.633C135.978 270.609 136.025 270.594 136.074 270.588C136.123 270.582 136.173 270.586 136.22 270.6C137.824 271.071 139.488 271.31 141.16 271.31C141.264 271.31 141.364 271.349 141.44 271.419C141.516 271.49 141.562 271.587 141.57 271.69C141.574 271.736 141.569 271.783 141.554 271.827C141.539 271.871 141.516 271.912 141.485 271.946C141.454 271.981 141.416 272.009 141.374 272.029C141.332 272.048 141.286 272.059 141.24 272.06V271.69L141.17 272.06ZM146.28 271.32C146.199 271.319 146.12 271.293 146.056 271.244C145.991 271.195 145.943 271.127 145.92 271.05C145.905 271.003 145.899 270.954 145.904 270.905C145.908 270.857 145.922 270.809 145.946 270.766C145.969 270.723 146.001 270.685 146.04 270.655C146.078 270.625 146.123 270.603 146.17 270.59C147.772 270.109 149.297 269.402 150.7 268.49C150.784 268.437 150.885 268.418 150.982 268.439C151.08 268.459 151.165 268.517 151.22 268.6C151.273 268.684 151.292 268.785 151.271 268.882C151.25 268.98 151.193 269.065 151.11 269.12C149.649 270.069 148.059 270.803 146.39 271.3L146.28 271.32ZM131.5 269.22C131.429 269.22 131.359 269.199 131.3 269.16C129.833 268.214 128.507 267.066 127.36 265.75C127.291 265.679 127.252 265.584 127.252 265.485C127.252 265.386 127.291 265.291 127.36 265.22C127.394 265.185 127.436 265.156 127.481 265.137C127.527 265.118 127.576 265.108 127.625 265.108C127.674 265.108 127.723 265.118 127.769 265.137C127.814 265.156 127.855 265.185 127.89 265.22C128.99 266.479 130.258 267.579 131.66 268.49C131.702 268.515 131.739 268.548 131.769 268.587C131.798 268.626 131.819 268.671 131.83 268.719C131.841 268.767 131.843 268.816 131.834 268.865C131.825 268.913 131.807 268.959 131.78 269C131.755 269.057 131.716 269.106 131.667 269.145C131.619 269.183 131.561 269.209 131.5 269.22ZM154.77 265.82C154.679 265.821 154.59 265.789 154.52 265.73C154.451 265.659 154.412 265.564 154.412 265.465C154.412 265.366 154.451 265.271 154.52 265.2C155.614 263.937 156.52 262.522 157.21 261C157.257 260.918 157.332 260.856 157.422 260.827C157.512 260.798 157.61 260.803 157.696 260.842C157.782 260.881 157.85 260.95 157.888 261.036C157.926 261.123 157.93 261.221 157.9 261.31C157.176 262.896 156.23 264.371 155.09 265.69C155.051 265.741 154.998 265.78 154.938 265.803C154.878 265.826 154.813 265.832 154.75 265.82H154.77ZM124.88 261.59C124.808 261.59 124.738 261.57 124.677 261.531C124.617 261.492 124.569 261.436 124.54 261.37C123.81 259.783 123.315 258.099 123.07 256.37C123.063 256.321 123.066 256.272 123.078 256.224C123.09 256.177 123.112 256.132 123.142 256.093C123.172 256.054 123.209 256.021 123.252 255.996C123.294 255.972 123.341 255.956 123.39 255.95C123.438 255.941 123.487 255.943 123.535 255.954C123.582 255.965 123.627 255.986 123.667 256.015C123.706 256.044 123.739 256.081 123.763 256.123C123.788 256.165 123.804 256.212 123.81 256.26C124.047 257.916 124.522 259.53 125.22 261.05C125.242 261.094 125.254 261.143 125.257 261.192C125.26 261.242 125.253 261.291 125.236 261.338C125.219 261.385 125.193 261.427 125.159 261.464C125.126 261.5 125.085 261.53 125.04 261.55C124.983 261.576 124.922 261.589 124.86 261.59H124.88ZM158.94 256.59C158.841 256.575 158.751 256.522 158.691 256.441C158.631 256.36 158.606 256.259 158.62 256.16C158.861 254.502 158.861 252.818 158.62 251.16C158.613 251.111 158.616 251.062 158.628 251.014C158.64 250.967 158.662 250.922 158.692 250.883C158.722 250.844 158.759 250.811 158.802 250.786C158.844 250.762 158.891 250.746 158.94 250.74C159.037 250.726 159.135 250.75 159.214 250.808C159.293 250.866 159.345 250.953 159.36 251.05C159.613 252.777 159.613 254.532 159.36 256.26C159.359 256.314 159.347 256.368 159.323 256.418C159.3 256.467 159.266 256.51 159.225 256.546C159.183 256.581 159.134 256.606 159.081 256.621C159.029 256.636 158.974 256.639 158.92 256.63L158.94 256.59ZM123.43 251.59C123.333 251.575 123.245 251.523 123.185 251.445C123.125 251.366 123.098 251.268 123.11 251.17C123.358 249.441 123.853 247.757 124.58 246.17C124.599 246.125 124.628 246.085 124.663 246.051C124.698 246.017 124.74 245.991 124.785 245.973C124.831 245.955 124.88 245.947 124.928 245.948C124.977 245.949 125.025 245.96 125.07 245.98C125.159 246.023 125.229 246.099 125.264 246.192C125.299 246.285 125.298 246.388 125.26 246.48C124.56 247.999 124.088 249.613 123.86 251.27C123.854 251.322 123.837 251.372 123.811 251.418C123.785 251.463 123.749 251.502 123.707 251.533C123.665 251.564 123.617 251.586 123.566 251.598C123.514 251.609 123.461 251.61 123.41 251.6L123.43 251.59ZM157.43 246.64C157.359 246.638 157.289 246.616 157.229 246.578C157.169 246.539 157.121 246.484 157.09 246.42C156.392 244.899 155.475 243.487 154.37 242.23C154.301 242.159 154.262 242.064 154.262 241.965C154.262 241.866 154.301 241.771 154.37 241.7C154.404 241.665 154.446 241.636 154.491 241.617C154.537 241.598 154.586 241.588 154.635 241.588C154.684 241.588 154.733 241.598 154.779 241.617C154.824 241.636 154.865 241.665 154.9 241.7C156.048 243.01 157.001 244.478 157.73 246.06C157.771 246.15 157.776 246.253 157.742 246.347C157.708 246.44 157.639 246.517 157.55 246.56C157.537 246.592 157.52 246.622 157.5 246.65L157.43 246.64ZM127.6 242.42C127.512 242.419 127.427 242.387 127.36 242.33C127.325 242.295 127.296 242.254 127.277 242.209C127.258 242.163 127.248 242.114 127.248 242.065C127.248 242.016 127.258 241.967 127.277 241.921C127.296 241.876 127.325 241.834 127.36 241.8C128.501 240.479 129.824 239.327 131.29 238.38C131.374 238.327 131.475 238.308 131.572 238.329C131.67 238.349 131.755 238.407 131.81 238.49C131.837 238.532 131.856 238.578 131.864 238.628C131.873 238.677 131.872 238.727 131.861 238.776C131.85 238.824 131.829 238.87 131.799 238.91C131.77 238.95 131.733 238.984 131.69 239.01C130.287 239.919 129.021 241.023 127.93 242.29C127.89 242.338 127.839 242.374 127.782 242.397C127.724 242.42 127.661 242.428 127.6 242.42ZM150.82 239C150.747 239.002 150.674 238.985 150.61 238.95C149.206 238.042 147.676 237.344 146.07 236.88C145.975 236.85 145.896 236.784 145.849 236.696C145.802 236.608 145.792 236.505 145.82 236.41C145.833 236.363 145.855 236.318 145.885 236.28C145.915 236.241 145.953 236.209 145.996 236.186C146.039 236.162 146.087 236.148 146.135 236.144C146.184 236.139 146.233 236.145 146.28 236.16C147.955 236.645 149.552 237.369 151.02 238.31C151.103 238.365 151.16 238.45 151.181 238.548C151.202 238.645 151.183 238.746 151.13 238.83C151.097 238.882 151.051 238.925 150.997 238.954C150.942 238.984 150.882 239 150.82 239ZM136.08 236.91C135.988 236.914 135.898 236.883 135.827 236.824C135.756 236.765 135.71 236.682 135.697 236.591C135.685 236.499 135.707 236.406 135.759 236.331C135.811 236.255 135.89 236.201 135.98 236.18C137.651 235.679 139.386 235.427 141.13 235.43C141.219 235.445 141.3 235.49 141.358 235.559C141.416 235.628 141.449 235.715 141.449 235.805C141.449 235.895 141.416 235.982 141.358 236.051C141.3 236.12 141.219 236.165 141.13 236.18C139.457 236.178 137.793 236.421 136.19 236.9L136.08 236.91Z" fill="#67E480"/>
<path d="M141.16 268.69C149.406 268.69 156.09 262.006 156.09 253.76C156.09 245.514 149.406 238.83 141.16 238.83C132.914 238.83 126.23 245.514 126.23 253.76C126.23 262.006 132.914 268.69 141.16 268.69Z" fill="#67E480"/>
<path d="M138.57 260.24C138.435 260.235 138.303 260.204 138.181 260.147C138.059 260.091 137.95 260.01 137.86 259.91L133.36 254.91C133.2 254.711 133.123 254.459 133.143 254.205C133.163 253.95 133.279 253.714 133.468 253.542C133.657 253.371 133.905 253.279 134.16 253.284C134.415 253.289 134.658 253.391 134.84 253.57L138.65 257.79L148.28 248.51C148.373 248.416 148.484 248.342 148.605 248.291C148.727 248.24 148.858 248.214 148.99 248.214C149.122 248.214 149.253 248.24 149.375 248.291C149.496 248.342 149.607 248.416 149.7 248.51C149.886 248.697 149.991 248.951 149.991 249.215C149.991 249.479 149.886 249.733 149.7 249.92L139.26 260C139.068 260.164 138.822 260.25 138.57 260.24Z" fill="white"/>
<path d="M246.8 282.39C246.8 282.39 216.4 297.72 207.25 336.11C200.58 364.11 202.6 416.95 214.62 421.19C226.64 425.43 227.98 392.71 228.08 381.08C228.18 369.45 239.08 355.25 248.79 354.4C248.79 354.4 250.69 293 246.8 282.39Z" fill="#67E480"/>
<path opacity="0.2" d="M251.35 290C244.16 292.74 238.25 298 233.46 303.88C228.36 310.351 224.165 317.487 220.99 325.09C217.469 333.212 214.902 341.716 213.34 350.43C211.881 359.611 211.168 368.894 211.21 378.19C211.05 389.56 210.77 401.4 215.21 412.12C215.38 412.55 216.09 412.36 215.91 411.93C212.07 402.59 211.84 392.39 211.91 382.44C211.99 373.05 212.13 363.62 213.46 354.31C215.84 337.77 221.87 321.04 231.68 307.42C236.77 300.36 243.3 293.85 251.56 290.7C252 290.53 251.81 289.83 251.37 290H251.35Z" fill="black"/>
<path d="M350.95 282.39C350.95 282.39 381.35 297.72 390.5 336.11C397.17 364.11 395.15 416.95 383.13 421.19C371.11 425.43 369.77 392.71 369.67 381.08C369.57 369.45 358.67 355.25 348.96 354.4C348.96 354.4 347.06 293 350.95 282.39Z" fill="#67E480"/>
<path opacity="0.2" d="M346.21 290.69C353.44 293.45 359.35 298.81 364.11 304.8C369.086 311.223 373.176 318.287 376.27 325.8C379.737 333.882 382.257 342.338 383.78 351C385.37 360.12 385.69 369.39 385.78 378.63C385.93 389.8 386.17 401.39 381.84 411.92C381.67 412.35 382.37 412.54 382.54 412.11C386.43 402.65 386.63 392.29 386.54 382.21C386.46 372.7 386.29 363.15 384.91 353.72C383.577 344.742 381.173 335.956 377.75 327.55C374.775 319.956 370.84 312.774 366.04 306.18C360.97 299.31 354.5 293.09 346.4 290C345.96 289.83 345.77 290.53 346.21 290.7V290.69Z" fill="black"/>
<path d="M340.5 399.06H256.5C256.5 399.06 241.12 339.96 247.15 273.69C248.777 256.129 253.234 238.947 260.35 222.81C260.45 222.56 260.56 222.31 260.67 222.07C262.43 218.07 264.28 214.3 266.18 210.71C273.642 196.585 282.947 183.514 293.85 171.84C294.474 171.128 295.243 170.558 296.105 170.167C296.968 169.776 297.903 169.574 298.85 169.574C299.797 169.574 300.732 169.776 301.595 170.167C302.457 170.558 303.226 171.128 303.85 171.84C315.101 183.888 324.65 197.421 332.23 212.06C334.13 215.73 335.98 219.6 337.73 223.66L338.04 224.38C344.751 240.066 348.975 256.703 350.56 273.69C356.58 340 340.5 399.06 340.5 399.06Z" fill="#67E480"/>
<g opacity="0.5">
<path d="M340.5 399.06H256.5C256.5 399.06 241.12 339.96 247.15 273.69C248.777 256.129 253.234 238.947 260.35 222.81C260.45 222.56 260.56 222.31 260.67 222.07C262.43 218.07 264.28 214.3 266.18 210.71C273.642 196.585 282.947 183.514 293.85 171.84C294.474 171.128 295.243 170.558 296.105 170.167C296.968 169.776 297.903 169.574 298.85 169.574C299.797 169.574 300.732 169.776 301.595 170.167C302.457 170.558 303.226 171.128 303.85 171.84C315.101 183.888 324.65 197.421 332.23 212.06C334.13 215.73 335.98 219.6 337.73 223.66L338.04 224.38C344.751 240.066 348.975 256.703 350.56 273.69C356.58 340 340.5 399.06 340.5 399.06Z" fill="white"/>
</g>
<path d="M331.21 390.64H268.22V391.6H331.21V390.64Z" fill="#67E480"/>
<path d="M342.41 421.56H257.5C251.45 412.85 257.85 399.06 257.85 399.06H340.69C340.69 399.06 347.06 410.31 342.41 421.56Z" fill="#263238"/>
<path d="M320.96 429.46H278.5C275.5 425.1 278.68 418.21 278.68 418.21H320.1C320.1 418.21 323.28 423.83 320.96 429.46Z" fill="#263238"/>
<path d="M320.98 429.46H278.64C270.07 434.01 248.75 444.87 251.73 463.27H348.98C351.96 444.87 329.55 434 320.98 429.46Z" fill="#67E480"/>
<path d="M351.91 459.38H248.08V467.39H351.91V459.38Z" fill="#263238"/>
<path d="M332.23 212.06C324.57 217.54 312.85 223.68 298.85 223.68C286.709 223.611 275.041 218.969 266.17 210.68C266.97 209.167 267.777 207.693 268.59 206.26L268.98 205.59C275.914 193.394 284.258 182.056 293.84 171.81C294.464 171.098 295.233 170.528 296.095 170.137C296.958 169.746 297.893 169.544 298.84 169.544C299.787 169.544 300.722 169.746 301.585 170.137C302.447 170.528 303.216 171.098 303.84 171.81C313.451 182.079 321.816 193.448 328.76 205.68L329.15 206.37C330.197 208.217 331.223 210.113 332.23 212.06Z" fill="#67E480"/>
<path opacity="0.2" d="M329.16 206.4C326.701 208.165 324.095 209.714 321.37 211.03C311.766 215.669 300.961 217.22 290.44 215.47C282.554 214.111 275.081 210.971 268.59 206.29L268.98 205.62C271.616 207.533 274.429 209.19 277.38 210.57C286.969 215.09 297.734 216.489 308.16 214.57C315.594 213.161 322.629 210.14 328.77 205.72L329.16 206.4Z" fill="black"/>
<path d="M339.11 284.27C335.26 245.39 332.25 229.83 331.9 228.12C333.35 227.33 334.71 226.53 335.9 225.75C336.63 225.3 337.33 224.84 338 224.38L337.69 223.66C336.98 224.14 336.25 224.66 335.49 225.1C327.49 230.15 314.64 236.18 299.16 236.18C286.96 236.187 275.053 232.445 265.05 225.46C263.4 224.32 261.93 223.17 260.62 222.07C260.51 222.31 260.4 222.56 260.3 222.81C261.57 223.87 263 224.97 264.58 226.08C265.58 226.78 266.71 227.51 267.9 228.23C267.47 230.39 264.5 246.08 260.72 284.23C257.72 314.03 260.46 343.68 263.24 363.31C264.891 375.357 267.167 387.31 270.06 399.12C270.08 399.198 270.125 399.266 270.189 399.315C270.252 399.364 270.33 399.39 270.41 399.39H270.5C270.592 399.364 270.67 399.304 270.718 399.222C270.767 399.14 270.782 399.043 270.76 398.95C267.873 387.163 265.604 375.234 263.96 363.21C261.18 343.63 258.49 314.05 261.44 284.32C265.1 247.38 268 231.53 268.56 228.6C277.833 234.102 288.417 237.004 299.2 237C310.401 236.859 321.393 233.953 331.2 228.54C331.7 231.08 334.63 246.84 338.35 284.39C341.3 314.12 338.61 343.7 335.83 363.28C334.186 375.304 331.917 387.233 329.03 399.02C329.008 399.113 329.023 399.21 329.072 399.292C329.12 399.374 329.198 399.434 329.29 399.46H329.38C329.46 399.46 329.538 399.434 329.601 399.385C329.665 399.336 329.71 399.268 329.73 399.19C332.623 387.38 334.899 375.427 336.55 363.38C339.37 343.72 342.07 314.07 339.11 284.27Z" fill="#67E480"/>
<path d="M299.2 325.54C293.695 325.542 288.313 323.911 283.735 320.854C279.157 317.797 275.588 313.45 273.48 308.365C271.373 303.279 270.821 297.682 271.894 292.283C272.968 286.884 275.619 281.924 279.511 278.031C283.404 274.138 288.364 271.488 293.763 270.414C299.163 269.341 304.759 269.893 309.845 272C314.93 274.108 319.277 277.676 322.334 282.255C325.391 286.833 327.022 292.215 327.02 297.72C327.012 305.096 324.078 312.167 318.863 317.383C313.647 322.598 306.576 325.532 299.2 325.54ZM299.2 270.62C293.84 270.62 288.601 272.209 284.144 275.187C279.687 278.165 276.214 282.397 274.163 287.349C272.112 292.301 271.575 297.75 272.621 303.007C273.666 308.264 276.247 313.092 280.037 316.882C283.827 320.672 288.656 323.254 293.913 324.299C299.17 325.345 304.619 324.808 309.571 322.757C314.523 320.706 318.755 317.232 321.733 312.776C324.711 308.319 326.3 303.08 326.3 297.72C326.292 290.535 323.434 283.647 318.354 278.566C313.273 273.486 306.385 270.628 299.2 270.62Z" fill="#67E480"/>
<path d="M320.27 297.71C320.27 303.298 318.05 308.657 314.099 312.609C310.147 316.56 304.788 318.78 299.2 318.78H298.71C295.144 318.709 291.656 317.724 288.58 315.92C286.201 314.528 284.116 312.688 282.44 310.5C279.633 306.832 278.118 302.339 278.13 297.72C278.131 296.901 278.178 296.083 278.27 295.27C278.828 290.565 280.953 286.184 284.303 282.833C287.654 279.483 292.035 277.358 296.74 276.8C297.557 276.708 298.378 276.661 299.2 276.66C304.699 276.666 309.979 278.82 313.913 282.663C317.847 286.505 320.124 291.732 320.26 297.23C320.27 297.39 320.27 297.55 320.27 297.71Z" fill="#67E480"/>
<path opacity="0.1" d="M311.97 281L282.44 310.53C279.633 306.862 278.118 302.369 278.13 297.75C278.131 296.931 278.178 296.113 278.27 295.3L296.74 276.83C297.557 276.738 298.378 276.691 299.2 276.69C303.815 276.685 308.302 278.199 311.97 281Z" fill="white"/>
<path opacity="0.1" d="M320.26 297.22L298.71 318.77C295.144 318.699 291.656 317.714 288.58 315.91L317.39 287.11C319.198 290.178 320.187 293.659 320.26 297.22Z" fill="white"/>
<path d="M294.16 482.44L290.47 488.13L281.21 502.42L277.27 508.49L266.74 524.73H262.63L273.33 502.42L277.27 494.2L279.75 489.02L282.91 482.44H294.16Z" fill="#67E480"/>
<path opacity="0.2" d="M294.16 482.44L290.47 488.13L281.21 502.42L277.27 508.49L266.74 524.73H262.63L273.33 502.42L277.27 494.2L279.75 489.02L282.91 482.44H294.16Z" fill="black"/>
<path d="M338.19 482.44L337 484.28L325.24 502.42L321.3 508.49L310.77 524.73H306.67L317.36 502.42L321.3 494.2L325.61 485.22L326.94 482.44H338.19Z" fill="#67E480"/>
<path opacity="0.2" d="M338.19 482.44L337 484.28L325.24 502.42L321.3 508.49L310.77 524.73H306.67L317.36 502.42L321.3 494.2L325.61 485.22L326.94 482.44H338.19Z" fill="black"/>
<path d="M342.43 467.39H255.23V482.44H342.43V467.39Z" fill="#67E480"/>
<path opacity="0.2" d="M342.43 467.39H255.23V482.44H342.43V467.39Z" fill="white"/>
<path d="M291.91 524.73H287.8L277.27 508.49L273.33 502.42L265.42 490.21L260.38 482.44H271.63L274.98 489.41L277.27 494.2L281.21 502.42L291.91 524.73Z" fill="#67E480"/>
<path d="M335.94 524.73H331.83L321.3 508.49L317.36 502.42L307.2 486.74L304.41 482.44H315.66L317.32 485.9L321.3 494.2L325.24 502.42L335.94 524.73Z" fill="#67E480"/>
<path d="M238.5 505.58L226.37 506.49L203.75 454.75L192.71 427.24L221.13 414.25L224.57 433.55L224.67 433.87L238.5 505.58Z" fill="#263238"/>
<path d="M227.33 503.97L231.69 515.43H237.72L236.41 503.97H227.33Z" fill="#B55B52"/>
<path d="M240.38 509.4L239.87 503.55H223.72L225.23 509.4H240.38Z" fill="#263238"/>
<path d="M256.33 523.54C255.49 519.81 253.69 518.69 251.66 518.54C249.63 518.39 241.66 515.89 241.66 515.89C241.66 515.89 239.76 513.52 238.31 513.04C237.834 512.938 237.34 512.972 236.882 513.136C236.425 513.3 236.022 513.589 235.72 513.97L231.88 513.5C231.88 513.5 230.52 511.81 229.88 513.29C229.21 515 229.43 522.36 229.47 523.52L256.33 523.54Z" fill="#67E480"/>
<path d="M255.7 522.57H251L230.44 522.47C230.387 522.47 230.336 522.449 230.298 522.411C230.261 522.374 230.24 522.323 230.24 522.27C230.24 522.217 230.261 522.166 230.298 522.129C230.336 522.091 230.387 522.07 230.44 522.07H231.84C231.834 522.054 231.834 522.036 231.84 522.02C232.84 519.86 231.67 517.68 229.69 516.59C229.46 516.47 229.69 516.12 229.89 516.25C230.947 516.74 231.779 517.615 232.215 518.695C232.652 519.776 232.66 520.983 232.24 522.07H235.14L255.7 522.18C255.744 522.19 255.784 522.215 255.812 522.25C255.84 522.286 255.855 522.33 255.855 522.375C255.855 522.42 255.84 522.464 255.812 522.5C255.784 522.535 255.744 522.56 255.7 522.57Z" fill="black"/>
<path d="M240.77 517.53C240.952 517.228 241.197 516.968 241.487 516.768C241.777 516.568 242.107 516.431 242.454 516.368C242.801 516.305 243.157 516.316 243.5 516.401C243.842 516.485 244.163 516.642 244.44 516.86C244.65 517.01 244.85 516.67 244.64 516.52C244.317 516.275 243.946 516.101 243.552 516.009C243.157 515.917 242.747 515.909 242.349 515.985C241.952 516.061 241.574 516.221 241.242 516.452C240.909 516.684 240.629 516.983 240.42 517.33C240.27 517.53 240.62 517.73 240.77 517.53Z" fill="white"/>
<path d="M242.98 518.2C243.163 517.898 243.409 517.638 243.7 517.438C243.991 517.237 244.322 517.101 244.669 517.038C245.017 516.974 245.374 516.985 245.717 517.07C246.061 517.155 246.382 517.312 246.66 517.53C246.86 517.68 247.06 517.34 246.86 517.19C246.538 516.945 246.167 516.77 245.773 516.677C245.379 516.584 244.97 516.575 244.572 516.651C244.174 516.726 243.796 516.884 243.464 517.115C243.131 517.346 242.85 517.644 242.64 517.99C242.49 518.2 242.84 518.4 242.98 518.2Z" fill="white"/>
<path d="M245.27 518.86C245.455 518.56 245.702 518.302 245.993 518.104C246.285 517.905 246.615 517.77 246.963 517.708C247.31 517.646 247.666 517.657 248.009 517.742C248.351 517.827 248.672 517.983 248.95 518.2C249.15 518.35 249.35 518.01 249.15 517.85C248.826 517.607 248.456 517.434 248.061 517.343C247.667 517.251 247.258 517.244 246.86 517.32C246.463 517.396 246.086 517.555 245.753 517.786C245.421 518.016 245.14 518.314 244.93 518.66C244.78 518.87 245.12 519.07 245.27 518.86Z" fill="white"/>
<path d="M200.42 462.39L202.47 476.15L203.19 481.11L209.29 522.71H205.63L196.86 481.11L195.82 476.15L192.92 462.39H200.42Z" fill="#67E480"/>
<path d="M186.11 462.39L188.15 476.15L188.88 481.11L194.98 522.71H191.31L182.54 481.11L181.5 476.15L178.6 462.39H186.11Z" fill="#67E480"/>
<g opacity="0.2">
<path d="M186.11 462.39L188.15 476.15L188.88 481.11L194.98 522.71H191.31L182.54 481.11L181.5 476.15L178.6 462.39H186.11Z" fill="black"/>
</g>
<path d="M117.99 451.94L112.89 476.15L111.85 481.11L103.08 522.71H99.4099L105.52 481.11L106.24 476.15L109.84 451.94H117.99Z" fill="#67E480"/>
<path d="M132.31 451.94L127.21 476.15L126.16 481.11L117.4 522.71H113.73L119.83 481.11L120.56 476.15L124.16 451.94H132.31Z" fill="#67E480"/>
<g opacity="0.2">
<path d="M132.31 451.94L127.21 476.15L126.16 481.11L117.4 522.71H113.73L119.83 481.11L120.56 476.15L124.16 451.94H132.31Z" fill="black"/>
</g>
<path d="M109.78 462.58H200.63L198.82 455.45C195.82 443.5 187.24 435.45 177.62 435.45H102.87L109.78 462.58Z" fill="#67E480"/>
<path d="M97.8699 416.62L106.48 448.62L193.09 448.72L187.75 428.85C184.19 415.59 172.43 405.85 158.75 405.61H158.67C157.67 401.78 147.87 365.61 125.9 366.27C102.7 366.96 107.73 405.61 107.73 405.61H103.81C99.4999 405.64 96.4299 411.26 97.8699 416.62Z" fill="#67E480"/>
<g opacity="0.2">
<path d="M97.8699 416.62L106.48 448.62L193.09 448.72L187.75 428.85C184.19 415.59 172.43 405.85 158.75 405.61H158.67C157.67 401.78 147.87 365.61 125.9 366.27C102.7 366.96 107.73 405.61 107.73 405.61H103.81C99.4999 405.64 96.4299 411.26 97.8699 416.62Z" fill="black"/>
</g>
<path d="M140.23 363.64C140.23 363.64 142.69 394.53 146.61 404.41C155.61 427.08 171.3 399.27 171.3 399.27L160.91 384.38L157.91 361.48L140.23 363.64Z" fill="#FF8B7B"/>
<path d="M160.33 384.2L156.63 384.98C156.531 385.002 156.444 385.064 156.39 385.15C156.335 385.236 156.317 385.34 156.34 385.44C156.363 385.539 156.424 385.626 156.51 385.68C156.596 385.735 156.701 385.752 156.8 385.73L160.5 385C160.599 384.979 160.686 384.919 160.742 384.834C160.797 384.748 160.816 384.644 160.795 384.545C160.774 384.445 160.714 384.359 160.629 384.303C160.543 384.248 160.439 384.229 160.34 384.25L160.33 384.2Z" fill="#742823"/>
<path d="M183.69 357.14C183.69 357.14 193.83 386.74 197.43 394.14C201.03 401.54 186.74 405.93 178.05 403.51C169.36 401.09 170.73 364.51 170.73 364.51L183.69 357.14Z" fill="#FF8B7B"/>
<path d="M163.87 325.28C163.87 325.28 152.3 353.05 158.42 370.74L187.42 362.82C187.42 362.82 187.56 349.82 183.99 339.47C178.41 323.22 163.87 325.28 163.87 325.28Z" fill="#67E480"/>
<path d="M118.69 422.17C112.69 418.17 112.54 400.9 113.69 385.17C113.75 381.17 113.92 376.62 114.26 371.76C114.6 366.9 115.13 361.76 115.91 356.48C117.006 348.688 118.724 340.997 121.05 333.48C122.6 328.58 130.65 323.48 137.95 321.01C143.034 319.482 148.374 318.999 153.65 319.59C157.549 320.56 161.395 321.735 165.17 323.11C174.72 326.5 180.77 331.18 180.17 333.82C179.83 335.26 180.17 343.01 178.38 352.44C177.43 357.53 176.82 363.03 175.97 368.56C175.97 368.56 175.97 368.61 175.97 368.66C175.97 368.71 175.97 369.1 175.92 369.51C175.67 374.06 175.1 393.65 182.45 407.15C193.5 427.4 127.27 428 118.69 422.17Z" fill="#67E480"/>
<g opacity="0.2">
<path d="M118.69 422.17C112.69 418.17 112.54 400.9 113.69 385.17C113.75 381.17 113.92 376.62 114.26 371.76C114.6 366.9 115.13 361.76 115.91 356.48C117.006 348.688 118.724 340.997 121.05 333.48C122.6 328.58 130.65 323.48 137.95 321.01C143.034 319.482 148.374 318.999 153.65 319.59C157.549 320.56 161.395 321.735 165.17 323.11C174.72 326.5 180.77 331.18 180.17 333.82C179.83 335.26 180.17 343.01 178.38 352.44C177.43 357.53 176.82 363.03 175.97 368.56C175.97 368.56 175.97 368.61 175.97 368.66C175.97 368.71 175.97 369.1 175.92 369.51C175.67 374.06 175.1 393.65 182.45 407.15C193.5 427.4 127.27 428 118.69 422.17Z" fill="white"/>
</g>
<path d="M163.85 337.6C163.545 337.595 163.242 337.572 162.94 337.53C154 336.28 146.5 319.53 146.43 319.37C146.423 319.355 146.42 319.34 146.419 319.324C146.418 319.308 146.421 319.292 146.426 319.277C146.432 319.262 146.441 319.249 146.451 319.237C146.462 319.226 146.475 319.216 146.49 319.21C146.521 319.196 146.555 319.194 146.587 319.206C146.619 319.217 146.645 319.24 146.66 319.27C146.73 319.44 154.17 336.06 162.98 337.27C164.5 337.48 165.55 337.17 166.1 336.35C168.34 332.96 161.86 322.05 161.79 321.94C161.77 321.916 161.758 321.886 161.758 321.855C161.758 321.824 161.77 321.794 161.79 321.77C161.801 321.759 161.814 321.75 161.829 321.744C161.843 321.738 161.859 321.735 161.875 321.735C161.891 321.735 161.906 321.738 161.921 321.744C161.936 321.75 161.949 321.759 161.96 321.77C162.23 322.23 168.59 332.93 166.26 336.45C165.989 336.831 165.626 337.136 165.204 337.337C164.782 337.538 164.316 337.629 163.85 337.6Z" fill="white"/>
<path d="M181 506.65L169.24 506L186.64 443.47C186.64 443.47 184.29 443.93 180.52 444.54C167.76 446.54 138.69 450.23 128.94 442.99C114.94 432.55 115.94 418.66 115.94 418.66C115.94 418.66 227.07 386.15 229.94 417.48C231.23 431.54 181 506.65 181 506.65Z" fill="#263238"/>
<path d="M170.7 504.37L169.5 515.43H175.52L179.77 504.37H170.7Z" fill="#B55B52"/>
<path d="M167.22 509.4L167.74 503.55H183.88L182.37 509.4H167.22Z" fill="#263238"/>
<path d="M195.32 523.54C194.48 519.81 192.69 518.69 190.65 518.54C188.61 518.39 180.65 515.89 180.65 515.89C180.65 515.89 178.76 513.52 177.31 513.04C176.834 512.938 176.34 512.972 175.882 513.136C175.425 513.3 175.022 513.589 174.72 513.97L170.87 513.5C170.87 513.5 169.52 511.81 168.93 513.29C168.25 515 168.48 522.36 168.52 523.52L195.32 523.54Z" fill="#67E480"/>
<path d="M194.7 522.57H190L169.43 522.47C169.377 522.47 169.326 522.449 169.289 522.411C169.251 522.374 169.23 522.323 169.23 522.27C169.23 522.217 169.251 522.166 169.289 522.129C169.326 522.091 169.377 522.07 169.43 522.07H170.82C170.815 522.054 170.815 522.036 170.82 522.02C171.82 519.86 170.64 517.68 168.66 516.59C168.43 516.47 168.66 516.12 168.86 516.25C169.918 516.74 170.75 517.614 171.188 518.695C171.626 519.775 171.637 520.981 171.22 522.07H174.12L194.68 522.18C194.725 522.187 194.766 522.21 194.796 522.244C194.826 522.278 194.844 522.321 194.846 522.367C194.849 522.412 194.836 522.457 194.809 522.494C194.782 522.531 194.744 522.558 194.7 522.57Z" fill="black"/>
<path d="M179.76 517.53C179.943 517.228 180.189 516.968 180.48 516.768C180.771 516.567 181.102 516.431 181.449 516.368C181.797 516.304 182.154 516.315 182.497 516.4C182.841 516.485 183.162 516.642 183.44 516.86C183.64 517.01 183.84 516.67 183.64 516.52C183.318 516.274 182.947 516.098 182.552 516.005C182.157 515.912 181.747 515.904 181.349 515.98C180.95 516.057 180.572 516.216 180.24 516.449C179.908 516.682 179.628 516.982 179.42 517.33C179.27 517.53 179.61 517.73 179.76 517.53Z" fill="white"/>
<path d="M181.98 518.2C182.162 517.898 182.407 517.638 182.697 517.438C182.987 517.238 183.317 517.101 183.664 517.038C184.011 516.975 184.367 516.986 184.71 517.071C185.052 517.155 185.373 517.312 185.65 517.53C185.86 517.68 186.06 517.34 185.85 517.19C185.528 516.945 185.157 516.77 184.763 516.677C184.369 516.584 183.96 516.575 183.562 516.651C183.164 516.726 182.786 516.884 182.454 517.115C182.121 517.346 181.84 517.644 181.63 517.99C181.48 518.2 181.83 518.4 181.98 518.2Z" fill="white"/>
<path d="M184.27 518.86C184.453 518.559 184.698 518.3 184.989 518.101C185.28 517.901 185.609 517.766 185.956 517.704C186.303 517.641 186.659 517.653 187.001 517.739C187.343 517.824 187.663 517.982 187.94 518.2C188.15 518.35 188.34 518.01 188.14 517.85C187.816 517.607 187.446 517.434 187.051 517.343C186.657 517.251 186.248 517.244 185.85 517.32C185.453 517.396 185.076 517.555 184.743 517.786C184.411 518.016 184.13 518.314 183.92 518.66C183.77 518.87 184.12 519.07 184.27 518.86Z" fill="white"/>
<path opacity="0.2" d="M194.61 424.6L186.61 443.49C186.61 443.49 184.26 443.95 180.49 444.56C185.21 437.67 194.22 425.11 194.61 424.6Z" fill="black"/>
<path d="M138.38 354.22C138.38 354.22 134.62 386.22 136.71 390.64C138.8 395.06 180.5 397.83 180.5 397.83L182.5 400.16C182.5 400.16 138.87 412.4 123.29 400.24C114.1 393.08 116 350.73 116 350.73L138.38 354.22Z" fill="#FF8B7B"/>
<path d="M121.56 332.37C116.31 339.98 114.12 353 113.15 365.17L141.5 363.6C141.5 363.6 144.62 351 143.5 340.09C142.82 333.2 139.41 329.94 135.58 328.5C129.5 326.18 125.29 327 121.56 332.37Z" fill="#67E480"/>
<path d="M155.15 407.08H226.44L228.47 400.25H157.18L155.15 407.08Z" fill="#67E480"/>
<g opacity="0.5">
<path d="M155.15 407.08H226.44L228.47 400.25H157.18L155.15 407.08Z" fill="white"/>
</g>
<path d="M182.08 403.55H221.93C222.613 403.555 223.279 403.333 223.822 402.918C224.365 402.504 224.755 401.92 224.93 401.26L232.93 371.15C233.051 370.692 233.065 370.211 232.971 369.747C232.877 369.282 232.677 368.845 232.387 368.47C232.097 368.095 231.725 367.791 231.299 367.583C230.872 367.375 230.404 367.268 229.93 367.27H189.5C188.61 367.266 187.745 367.559 187.04 368.103C186.336 368.646 185.832 369.409 185.61 370.27L178.15 398.5C177.987 399.099 177.966 399.728 178.087 400.337C178.209 400.945 178.471 401.517 178.853 402.007C179.234 402.497 179.724 402.892 180.284 403.16C180.844 403.427 181.459 403.561 182.08 403.55Z" fill="#67E480"/>
<g opacity="0.5">
<path d="M182.08 403.55H221.93C222.613 403.555 223.279 403.333 223.822 402.918C224.365 402.504 224.755 401.92 224.93 401.26L232.93 371.15C233.051 370.692 233.065 370.211 232.971 369.747C232.877 369.282 232.677 368.845 232.387 368.47C232.097 368.095 231.725 367.791 231.299 367.583C230.872 367.375 230.404 367.268 229.93 367.27H189.5C188.61 367.266 187.745 367.559 187.04 368.103C186.336 368.646 185.832 369.409 185.61 370.27L178.15 398.5C177.987 399.099 177.966 399.728 178.087 400.337C178.209 400.945 178.471 401.517 178.853 402.007C179.234 402.497 179.724 402.892 180.284 403.16C180.844 403.427 181.459 403.561 182.08 403.55Z" fill="white"/>
</g>
<path d="M185.36 403.55H225.21C225.893 403.555 226.559 403.333 227.102 402.918C227.645 402.504 228.035 401.92 228.21 401.26L236.21 371.15C236.331 370.692 236.345 370.211 236.251 369.747C236.157 369.282 235.957 368.845 235.667 368.47C235.377 368.095 235.005 367.791 234.578 367.583C234.152 367.375 233.684 367.268 233.21 367.27H192.82C191.93 367.266 191.065 367.559 190.36 368.103C189.656 368.646 189.152 369.409 188.93 370.27L181.5 398.5C181.338 399.093 181.316 399.716 181.434 400.319C181.553 400.923 181.808 401.491 182.182 401.979C182.555 402.468 183.036 402.864 183.587 403.136C184.138 403.408 184.745 403.55 185.36 403.55Z" fill="#67E480"/>
<g opacity="0.8">
<path d="M185.36 403.55H225.21C225.893 403.555 226.559 403.333 227.102 402.918C227.645 402.504 228.035 401.92 228.21 401.26L236.21 371.15C236.331 370.692 236.345 370.211 236.251 369.747C236.157 369.282 235.957 368.845 235.667 368.47C235.377 368.095 235.005 367.791 234.578 367.583C234.152 367.375 233.684 367.268 233.21 367.27H192.82C191.93 367.266 191.065 367.559 190.36 368.103C189.656 368.646 189.152 369.409 188.93 370.27L181.5 398.5C181.338 399.093 181.316 399.716 181.434 400.319C181.553 400.923 181.808 401.491 182.182 401.979C182.555 402.468 183.036 402.864 183.587 403.136C184.138 403.408 184.745 403.55 185.36 403.55Z" fill="white"/>
</g>
<path d="M205.4 385.74C205.269 386.269 205.26 386.821 205.375 387.354C205.49 387.886 205.726 388.386 206.064 388.813C206.401 389.241 206.833 389.585 207.324 389.821C207.816 390.056 208.355 390.175 208.9 390.17C210.11 390.1 211.26 389.624 212.167 388.821C213.074 388.017 213.684 386.932 213.9 385.74C214.031 385.21 214.039 384.658 213.924 384.125C213.809 383.592 213.574 383.092 213.236 382.664C212.899 382.235 212.468 381.89 211.976 381.653C211.484 381.417 210.945 381.296 210.4 381.3C209.19 381.373 208.039 381.85 207.132 382.655C206.225 383.46 205.615 384.547 205.4 385.74Z" fill="#67E480"/>
<g opacity="0.5">
<path d="M205.4 385.74C205.269 386.269 205.26 386.821 205.375 387.354C205.49 387.886 205.726 388.386 206.064 388.813C206.401 389.241 206.833 389.585 207.324 389.821C207.816 390.056 208.355 390.175 208.9 390.17C210.11 390.1 211.26 389.624 212.167 388.821C213.074 388.017 213.684 386.932 213.9 385.74C214.031 385.21 214.039 384.658 213.924 384.125C213.809 383.592 213.574 383.092 213.236 382.664C212.899 382.235 212.468 381.89 211.976 381.653C211.484 381.417 210.945 381.296 210.4 381.3C209.19 381.373 208.039 381.85 207.132 382.655C206.225 383.46 205.615 384.547 205.4 385.74Z" fill="white"/>
</g>
<path d="M181.16 293.61C180.77 294.71 179.16 294.96 179.16 294.96C179.16 294.96 180.68 296.87 179.92 297.51C179.16 298.15 177.51 297.51 177.51 297.51C177.695 297.805 177.817 298.135 177.867 298.479C177.917 298.824 177.894 299.175 177.8 299.51C177.45 300.62 177 300.2 177 300.2L152.64 296.29C153.071 294.394 153.071 292.426 152.64 290.53C151.87 287.9 150.82 284.3 152.09 283.66C153.36 283.02 153.97 283.66 153.97 283.66C153.97 283.66 153.87 280.96 155.18 280.74C155.524 280.669 155.88 280.67 156.224 280.743C156.568 280.815 156.893 280.957 157.18 281.16C157.18 281.16 157.34 279.26 158.53 279.09C158.873 279.058 159.216 279.146 159.501 279.339C159.785 279.533 159.994 279.819 160.09 280.15C160.09 280.15 161.46 278.28 162.81 278.25C164.16 278.22 164.34 279.76 164.34 279.76C164.34 279.76 166.5 278 167.5 278.69C168.13 279.206 168.613 279.878 168.9 280.64C168.9 280.64 171 278.48 171.9 279.64C172.466 280.428 172.78 281.37 172.8 282.34C172.8 282.34 175.51 280.34 176.23 281.59C176.656 282.454 176.793 283.432 176.62 284.38C176.62 284.38 178.94 283.11 179.62 284.72C179.802 285.221 179.852 285.76 179.765 286.286C179.677 286.811 179.455 287.305 179.12 287.72C179.12 287.72 181.28 287.98 181.2 289.25C181.12 290.52 179.2 291.64 179.2 291.64C179.2 291.64 181.5 292.5 181.16 293.61Z" fill="#263238"/>
<path d="M163.07 317.7V317.78L161.37 321.46C161.144 322.22 160.993 323.001 160.92 323.79C160.854 324.428 160.837 325.07 160.87 325.71C161.52 327.03 161.45 329.71 158.43 329.22C154.62 328.57 148.61 321.76 148.66 320.03C151.34 315.14 153.9 309.31 154.49 304.29L158.01 309.76L163.07 317.7Z" fill="#FF8B7B"/>
<g opacity="0.2">
<path d="M163.02 317.79L161.32 321.47C159.12 319.96 157.05 317.17 156.92 314.53C156.85 312.63 157.98 311.07 158.73 311.1L163.02 317.79Z" fill="black"/>
</g>
<path d="M155.29 294.88C155.736 293.036 156.643 291.336 157.927 289.939C159.21 288.542 160.828 287.494 162.628 286.894C164.428 286.294 166.351 286.162 168.216 286.509C170.081 286.856 171.827 287.672 173.29 288.88C179.97 294.38 177.42 305.42 172.87 313.81C168.87 321.2 158.51 319.44 154.46 311.54C151.77 306.3 153.28 302.9 155.24 294.93" fill="#FF8B7B"/>
<path d="M169.5 311.21C169.5 311.21 165.81 310.21 164.1 307.74C164.1 307.74 163.94 310.66 165.59 312.3C167.24 313.94 169.5 311.21 169.5 311.21Z" fill="white"/>
<path d="M155.07 295.62C155.07 295.62 157.48 296.16 157.22 298.26C156.96 300.36 156.69 300.6 156.69 300.6L159.46 301.71C159.46 301.71 160.05 293.62 162.13 294.08C164.21 294.54 162.56 290.58 163.91 290.28C167.09 289.58 175.2 290.92 177.47 296.34C177.47 296.34 177.47 291.34 174.1 288.13C170.73 284.92 163.1 282.97 159.29 286.22C155.48 289.47 155.07 295.62 155.07 295.62Z" fill="#263238"/>
<path d="M150.3 299.05C150.269 301.113 151.057 303.105 152.49 304.59C154.4 306.59 156.72 305.16 157.33 302.59C157.87 300.33 157.54 296.59 155.07 295.59C152.6 294.59 150.37 296.49 150.3 299.02" fill="#FF8B7B"/>
<path d="M165.84 302.44C165.64 303.08 165.84 303.7 166.23 303.83C166.62 303.96 167.14 303.55 167.34 302.92C167.54 302.29 167.34 301.66 166.95 301.53C166.56 301.4 166.03 301.81 165.84 302.44Z" fill="#263238"/>
<path d="M172.84 304.54C172.64 305.18 172.84 305.8 173.23 305.93C173.62 306.06 174.15 305.65 174.35 305.01C174.55 304.37 174.35 303.75 173.95 303.62C173.55 303.49 173.04 303.9 172.84 304.54Z" fill="black"/>
<path d="M176.16 302.47C176.106 302.448 176.058 302.414 176.02 302.371C175.982 302.328 175.955 302.276 175.94 302.22C175.906 301.993 175.826 301.774 175.706 301.579C175.586 301.383 175.427 301.213 175.24 301.08C174.836 300.864 174.37 300.793 173.92 300.88C173.835 300.898 173.747 300.884 173.672 300.839C173.598 300.795 173.543 300.723 173.52 300.64C173.51 300.599 173.508 300.555 173.514 300.513C173.521 300.471 173.535 300.431 173.558 300.394C173.58 300.358 173.61 300.327 173.644 300.302C173.679 300.277 173.718 300.259 173.76 300.25C174.384 300.119 175.034 300.219 175.59 300.53C175.855 300.707 176.081 300.937 176.253 301.205C176.425 301.474 176.54 301.775 176.59 302.09C176.6 302.131 176.602 302.174 176.595 302.217C176.587 302.259 176.571 302.299 176.548 302.334C176.524 302.37 176.494 302.401 176.458 302.424C176.422 302.447 176.382 302.463 176.34 302.47C176.281 302.487 176.219 302.487 176.16 302.47Z" fill="#263238"/>
<path d="M165.25 299.29C165.197 299.275 165.149 299.246 165.11 299.206C165.072 299.167 165.044 299.118 165.03 299.065C165.016 299.011 165.016 298.955 165.03 298.902C165.044 298.848 165.072 298.8 165.11 298.76C165.559 298.311 166.156 298.04 166.79 298C167.107 298.005 167.42 298.074 167.709 298.205C167.998 298.336 168.257 298.525 168.47 298.76C168.509 298.788 168.542 298.824 168.566 298.865C168.59 298.907 168.604 298.954 168.608 299.001C168.612 299.049 168.606 299.097 168.589 299.143C168.573 299.188 168.547 299.229 168.513 299.263C168.479 299.297 168.438 299.323 168.393 299.339C168.347 299.356 168.299 299.362 168.251 299.358C168.204 299.354 168.157 299.34 168.115 299.316C168.074 299.292 168.038 299.259 168.01 299.22C167.858 299.05 167.674 298.912 167.468 298.814C167.262 298.716 167.038 298.66 166.81 298.65C166.346 298.683 165.91 298.882 165.58 299.21C165.538 299.253 165.485 299.283 165.426 299.297C165.368 299.312 165.307 299.309 165.25 299.29Z" fill="#263238"/>
<path d="M170.62 302.77C170.554 304.173 170.902 305.564 171.62 306.77C172.79 308.62 169.27 308.82 169.27 308.82L170.62 302.77Z" fill="#BA4D3C"/>
</svg>
